<svg width="114" height="115" viewBox="0 0 114 115" fill="none" xmlns="http://www.w3.org/2000/svg">
<g id="in">
<path id="Subtract" fill-rule="evenodd" clip-rule="evenodd" d="M101.416 61.341C101.516 60.1165 101.567 58.8782 101.567 57.628C101.567 56.1305 101.494 54.65 101.351 53.19L108.443 57.2842L101.416 61.341ZM11.7344 62.2842H5.30859H0.308594V52.2842H5.30859L11.8104 52.2842C11.6032 54.0367 11.4966 55.8199 11.4966 57.628C11.4966 59.2002 11.5772 60.7536 11.7344 62.2842Z" fill="#E37230"/>
<path id="Subtract_2" fill-rule="evenodd" clip-rule="evenodd" d="M52.8197 101.825C54.0441 101.925 55.2824 101.976 56.5326 101.976C58.0302 101.976 59.5107 101.902 60.9707 101.76L56.8764 108.851L52.8197 101.825ZM53.2351 12.0242L56.8764 5.71725L60.5512 12.0821C59.2273 11.9651 57.8869 11.9053 56.5326 11.9053C55.4236 11.9053 54.324 11.9454 53.2351 12.0242Z" fill="#E37230"/>
<path id="Subtract_3" fill-rule="evenodd" clip-rule="evenodd" d="M24.9206 88.5318C24.9573 88.5688 24.9942 88.6058 25.0311 88.6427C25.2303 88.8419 25.431 89.0389 25.633 89.2336L24.301 90.5656L22.4532 95.7888L18.3707 91.7063L23.5939 89.8585L24.9206 88.5318ZM88.6095 24.8429L89.4496 24.0029L91.2974 18.7796L95.3799 22.8621L90.1567 24.71L89.3113 25.5553C89.1166 25.3533 88.9196 25.1526 88.7204 24.9534C88.6835 24.9165 88.6465 24.8796 88.6095 24.8429Z" fill="#E37230"/>
<path id="Subtract_4" fill-rule="evenodd" clip-rule="evenodd" d="M45.5671 13.8131C38.2227 15.7985 31.2828 19.674 25.5172 25.4396C19.5943 31.3625 15.666 38.5247 13.7324 46.0915L5.49439e-05 41.2333L40.8249 0.408471L45.5671 13.8131ZM85.2061 92.6856L89.8036 97.2831L96.8747 90.2121L92.3309 85.6682C91.3597 86.8618 90.3182 88.0172 89.2065 89.1289C87.928 90.4074 86.5917 91.593 85.2061 92.6856Z" fill="#E37230"/>
</g>
</svg>
